<?xml version="1.0" encoding="iso-8859-1"?>
<!-- Generator: Adobe Illustrator 19.0.0, SVG Export Plug-In . SVG Version: 6.00 Build 0)  -->
<svg version="1.1" id="Capa_1" xmlns="http://www.w3.org/2000/svg" xmlns:xlink="http://www.w3.org/1999/xlink" x="0px" y="0px"
	 viewBox="0 0 499.21 499.21" style="enable-background:new 0 0 499.21 499.21;" xml:space="preserve">
<g>
	<path style="fill:#010002;" d="M390.693,226.706c-2.886,0-5.387,1.556-6.774,3.86V130.559c0-18.951-15.417-34.368-34.366-34.368
		h-53.86V31.195C295.693,13.12,281.24,0,261.326,0h-38.142c-19.914,0-34.368,13.12-34.368,31.195v64.996h-53.861
		c-18.951,0-34.368,15.417-34.368,34.368v318.677c0,18.949,15.417,34.366,34.368,34.366h4.362c-3.46,0.853-6.036,3.954-6.036,7.678
		c0,4.381,3.55,7.931,7.931,7.931h35.814c4.381,0,7.931-3.55,7.931-7.931c0-3.724-2.575-6.825-6.036-7.678h126.667
		c-3.46,0.853-6.036,3.954-6.036,7.678c0,4.381,3.55,7.931,7.931,7.931h35.814c4.381,0,7.931-3.55,7.931-7.931
		c0-3.724-2.575-6.825-6.036-7.678h4.362c18.949,0,34.366-15.417,34.366-34.366V306.975c1.388,2.304,3.888,3.86,6.774,3.86
		c4.381,0,7.931-3.55,7.931-7.931v-68.268C398.624,230.256,395.074,226.706,390.693,226.706z M223.184,15.862h38.142
		c9.211,0,18.506,4.741,18.506,15.333v43.103c-5.249-2.869-11.531-4.507-18.506-4.507h-38.142c-6.976,0-13.257,1.639-18.506,4.507
		V31.195C204.677,20.603,213.972,15.862,223.184,15.862z M279.082,96.191h-73.655c2.363-7.23,10.079-10.539,17.756-10.539h38.142
		C269.003,85.652,276.719,88.961,279.082,96.191z M368.058,449.236c0,10.204-8.301,18.505-18.505,18.505H134.954
		c-10.204,0-18.506-8.301-18.506-18.505V130.559c0-10.204,8.302-18.506,18.506-18.506h214.599c10.204,0,18.505,8.302,18.505,18.506
		V449.236z"/>
	<path style="fill:#010002;" d="M340.957,211.304l-81.282-31.825c-2.712-1.06-5.783,0.277-6.851,2.996l-17.342,44.29
		c-0.512,1.306-0.483,2.761,0.078,4.046c0.563,1.284,1.612,2.293,2.918,2.805l81.284,31.823c0.632,0.248,1.284,0.364,1.925,0.364
		c2.113,0,4.107-1.275,4.925-3.361l17.341-44.288c0.512-1.306,0.483-2.761-0.078-4.046
		C343.313,212.825,342.264,211.816,340.957,211.304z M318.693,253.664l-71.437-27.969l13.488-34.443l71.435,27.971L318.693,253.664z
		"/>
	<path style="fill:#010002;" d="M185.637,248.225c-21.736,0-39.421,17.685-39.421,39.421s17.685,39.421,39.421,39.421
		s39.421-17.685,39.421-39.421S207.373,248.225,185.637,248.225z M185.637,316.491c-15.905,0-28.845-12.94-28.845-28.845
		s12.94-28.845,28.845-28.845s28.845,12.94,28.845,28.845S201.542,316.491,185.637,316.491z"/>
	<path style="fill:#010002;" d="M325.457,323.622l-71.173-0.444c-0.011,0-0.022,0-0.033,0c-2.905,0-5.27,2.346-5.288,5.255
		l-0.244,38.781c-0.007,1.403,0.541,2.75,1.526,3.749c0.985,0.996,2.326,1.563,3.729,1.572l71.177,0.444c0.011,0,0.022,0,0.033,0
		c1.39,0,2.725-0.548,3.716-1.526c0.996-0.985,1.563-2.326,1.572-3.729l0.24-38.781C330.73,326.023,328.376,323.641,325.457,323.622
		z M319.928,362.371l-60.601-0.377l0.177-28.208l60.599,0.377L319.928,362.371z"/>
</g>
<g>
</g>
<g>
</g>
<g>
</g>
<g>
</g>
<g>
</g>
<g>
</g>
<g>
</g>
<g>
</g>
<g>
</g>
<g>
</g>
<g>
</g>
<g>
</g>
<g>
</g>
<g>
</g>
<g>
</g>
</svg>
