<?xml version="1.0" encoding="iso-8859-1"?>
<!-- Generator: Adobe Illustrator 19.0.0, SVG Export Plug-In . SVG Version: 6.00 Build 0)  -->
<svg version="1.1" id="Capa_1" xmlns="http://www.w3.org/2000/svg" xmlns:xlink="http://www.w3.org/1999/xlink" x="0px" y="0px"
	 viewBox="0 0 224 224" style="enable-background:new 0 0 224 224;" xml:space="preserve">
<path d="M30,0v224h164V0H30z M137.114,177.261c-3.968,6.742-24.755,20.241-24.755,20.241s-20.864-13.557-24.807-20.241
	c-1.974-3.346-3.374-7.039-3.142-11.892c0.412-8.591,6.7-15.686,14.401-15.686c7.917,0,13.523,6.305,13.523,6.305
	s5.945-6.305,13.522-6.305c7.701,0,13.989,7.095,14.401,15.686C140.489,170.223,139.092,173.901,137.114,177.261z M162,130H62v-16
	h100V130z M162,88H62V72h100V88z M162,46H62V30h100V46z"/>
<g>
</g>
<g>
</g>
<g>
</g>
<g>
</g>
<g>
</g>
<g>
</g>
<g>
</g>
<g>
</g>
<g>
</g>
<g>
</g>
<g>
</g>
<g>
</g>
<g>
</g>
<g>
</g>
<g>
</g>
</svg>
