<?xml version="1.0" encoding="iso-8859-1"?>
<!-- Generator: Adobe Illustrator 16.0.0, SVG Export Plug-In . SVG Version: 6.00 Build 0)  -->
<!DOCTYPE svg PUBLIC "-//W3C//DTD SVG 1.1//EN" "http://www.w3.org/Graphics/SVG/1.1/DTD/svg11.dtd">
<svg version="1.1" id="Capa_1" xmlns="http://www.w3.org/2000/svg" xmlns:xlink="http://www.w3.org/1999/xlink" x="0px" y="0px"
	 width="311.324px" height="311.324px" viewBox="0 0 311.324 311.324" style="enable-background:new 0 0 311.324 311.324;"
	 xml:space="preserve">
<g>
	<g>
		<path d="M21.176,87.5c2.087,0.458,4.02,0.424,9.965-4.143c2.635-2.026,6.536-5.443,10.142-10.205l1.578-2.096
			c13.49-17.944,45.075-59.955,90.701-57.677c37.623,2.745,64.299,31.157,77.125,82.173c0.435,1.732,0.701,2.8,0.996,3.614
			c0.023,0.107,0.062,0.222,0.082,0.335c3.634,6.386,6.498,13.258,8.483,20.501c0.458,0.494,0.928,0.963,1.42,1.321
			c1.174,0.849,2.536,1.257,3.885,1.257c2.053,0,4.093-0.956,5.386-2.758c2.074-2.866,1.523-6.836-1.197-9.04
			c-1.311-1.697-3.778-8.796-5.243-15.146c-0.089-0.375-0.205-0.739-0.359-1.097c-0.119-0.438-0.362-1.384-0.574-2.231
			c-2.033-8.084-7.437-29.562-20.537-49.765c-16.919-26.082-39.991-40.356-68.586-42.416c-0.046-0.007-0.087-0.007-0.137-0.014
			C81.603-2.578,47.008,43.429,32.241,63.074l-1.552,2.06c-4.045,5.344-8.824,8.673-10.472,9.637
			c-0.553,0.221-1.094,0.519-1.59,0.898c-2.068,1.565-3.078,4.236-2.524,6.769C16.666,84.969,18.648,86.945,21.176,87.5z"/>
		<path d="M179.459,66.596c-4.018-3.435-8.932-6.11-14.671-7.87c-2.094-0.638-4.25-1.026-6.452-1.199
			C165.822,59.65,172.909,62.716,179.459,66.596z"/>
		<path d="M24.136,155.71c7.253-1.976,14.308-4.625,20.554-7.31c-0.085-1.602-0.133-3.21-0.133-4.832
			c0-3.354,0.204-6.667,0.564-9.924c-6.971,3.273-15.645,6.844-24.479,9.253c-3.539,0.958-5.625,4.613-4.661,8.152
			C16.942,154.589,20.594,156.681,24.136,155.71z"/>
		<path d="M62.609,197.38c-10.55,5.783-21.109,11.16-30.396,15.126c-3.374,1.444-4.941,5.343-3.497,8.717
			c1.076,2.528,3.531,4.031,6.106,4.031c0.873,0,1.761-0.171,2.611-0.527c10.456-4.473,22.413-10.633,34.184-17.151
			C68.371,204.406,65.354,201.008,62.609,197.38z"/>
		<path d="M80.565,63.379c-3.013,3.326-5.718,6.894-8.634,10.295c-3.817,4.46-7.987,8.63-12.339,12.559
			c-4.483,4.045-8.105,6.938-13.387,9.974c-5.602,3.21-11.315,6.469-17.118,9.292c-1.997,0.972-3.718,1.608-5.961,2.279
			c-3.461,1.041-5.614,4.618-4.632,8.17c0.939,3.431,4.702,5.681,8.168,4.641c6.792-2.046,12.948-5.537,19.077-9.021
			c2.074-1.184,4.136-2.318,6.175-3.489c9.804-22.593,28.671-40.37,51.989-48.725c0.399-0.335,0.803-0.662,1.205-1
			c0.137-0.107,1.17-0.924,1.431-1.134c4.625-3.541,9.556-6.694,14.743-9.356c4.895-2.521,9.811-4.28,15.772-5.523
			c1.977-0.409,2.408-0.452,3.886-0.603c3.598-0.375,6.644-2.745,6.644-6.644c0-3.34-3.036-7.016-6.644-6.641
			C116.926,30.94,96.395,45.957,80.565,63.379z"/>
		<path d="M28.871,190.577c4.016-1.379,12.657-4.518,23.928-9.582c-1.852-3.997-3.417-8.158-4.665-12.45
			c-11.108,5.017-19.655,8.121-23.577,9.473c-0.297,0.1-0.48,0.164-0.541,0.185c-3.431,1.308-5.161,5.141-3.86,8.566
			c1.004,2.658,3.531,4.287,6.213,4.287c0.753,0,1.521-0.123,2.264-0.39L28.871,190.577z"/>
		<path d="M173.107,223.909c6.612,4.694,13.312,9.349,19.862,13.059l-15.372-15.399C176.123,222.393,174.617,223.17,173.107,223.909
			z"/>
		<path d="M102.3,227.181c-4.861-1.845-9.522-4.107-13.937-6.735c-15.665,10.314-32.478,21.19-40.082,23.236
			c-3.547,0.958-5.647,4.606-4.692,8.146c0.797,2.97,3.479,4.921,6.408,4.921c0.572,0,1.157-0.075,1.732-0.233
			c10.246-2.765,28.305-14.667,47.424-27.261C100.187,228.576,101.237,227.878,102.3,227.181z"/>
		<path d="M192.994,262.665c-5.349-1.938-14.059-7.316-22.477-12.516c-17.78-10.988-29.082-17.651-37.191-16.258
			c-8.215,1.423-25.466,13.147-54.419,34.29c-3.545,2.587-6.605,4.818-8.728,6.323c-2.993,2.119-3.708,6.263-1.595,9.258
			c1.297,1.83,3.35,2.812,5.431,2.812c1.33,0,2.664-0.396,3.831-1.218c2.208-1.561,5.31-3.83,8.897-6.44
			c11.521-8.419,42.136-30.766,48.78-31.916c4.143-0.28,19.087,8.939,28.019,14.449c9.407,5.811,18.295,11.307,24.94,13.709
			c3.446,1.249,7.259-0.541,8.508-3.99C198.236,267.716,196.45,263.914,192.994,262.665z"/>
		<path d="M170.562,295.688c-3.733-2.434-7.159-4.887-10.482-7.252c-10.892-7.785-20.312-14.506-30.631-12.703
			c-11.622,2.006-30.13,20.615-33.722,24.322c-2.554,2.635-2.484,6.844,0.151,9.4c1.289,1.238,2.957,1.868,4.618,1.868
			c1.735,0,3.47-0.678,4.769-2.025c8.897-9.186,21.537-19.634,26.444-20.481c4.85-0.832,12.18,4.387,20.658,10.434
			c3.268,2.334,6.969,4.976,10.934,7.562c3.073,2.002,7.193,1.141,9.195-1.933S173.632,297.697,170.562,295.688z"/>
		<path d="M231.394,167.655c1.66-2.816,0.959-7.673-2.381-9.086c-2.136-0.903-4.295-1.853-6.428-2.859
			c-0.615,4.475-1.584,8.879-2.867,13.191c0.855,0.39,1.718,0.766,2.594,1.136C225.645,171.454,229.392,171.084,231.394,167.655z"/>
		<path d="M216.124,193.232c-2.118-0.653-4.014-1.403-5.903-2.266l10.314,10.335C221.302,198.144,220.107,194.465,216.124,193.232z"
			/>
		<path d="M291.09,279.022l-89.794-89.951c-0.137-0.144-0.305-0.229-0.448-0.363c9.75-13.545,15.561-30.094,15.561-48.014
			c0-45.453-36.977-82.424-82.426-82.424c-45.452,0-82.421,36.971-82.421,82.424c0,45.448,36.973,82.42,82.424,82.42
			c16.519,0,31.892-4.924,44.8-13.325c0.273,0.321,0.503,0.678,0.804,0.985l89.788,89.955c5.992,5.995,15.711,5.988,21.71,0
			C297.075,294.733,297.075,285.012,291.09,279.022z M67.81,140.694c0-14.469,4.721-27.821,12.626-38.725v77.445
			C72.53,168.507,67.81,155.156,67.81,140.694z M85.839,185.95V95.432c1.454-1.545,2.976-3.017,4.57-4.415v99.347
			C88.815,188.969,87.293,187.493,85.839,185.95z M93.794,193.144V90.499h-2.813c11.581-9.938,26.587-15.983,43.001-15.983
			c16.414,0,31.426,6.045,43.003,15.983h-5.175v102.966h1.931c-11.088,8.374-24.832,13.401-39.763,13.401
			C118.861,206.866,104.949,201.713,93.794,193.144z M179.183,188.894V92.489c1.803,1.689,3.527,3.463,5.133,5.344v85.711
			C182.71,185.427,180.985,187.199,179.183,188.894z M186.567,180.707v-80.032c8.49,11.131,13.593,24.975,13.593,40.019
			C200.16,155.737,195.054,169.578,186.567,180.707z"/>
		<rect x="98.812" y="90.499" width="9.574" height="102.966"/>
		<rect x="141.947" y="90.499" width="2.029" height="102.966"/>
		<rect x="157.811" y="90.499" width="4.945" height="102.966"/>
		<rect x="147.204" y="90.499" width="2.789" height="102.966"/>
		<rect x="119.642" y="90.499" width="3.383" height="102.966"/>
		<rect x="131.262" y="90.499" width="7.181" height="102.966"/>
		<rect x="114.01" y="90.499" width="2.25" height="102.966"/>
	</g>
</g>
<g>
</g>
<g>
</g>
<g>
</g>
<g>
</g>
<g>
</g>
<g>
</g>
<g>
</g>
<g>
</g>
<g>
</g>
<g>
</g>
<g>
</g>
<g>
</g>
<g>
</g>
<g>
</g>
<g>
</g>
</svg>
