<?xml version="1.0" encoding="iso-8859-1"?>
<!-- Generator: Adobe Illustrator 16.0.0, SVG Export Plug-In . SVG Version: 6.00 Build 0)  -->
<!DOCTYPE svg PUBLIC "-//W3C//DTD SVG 1.1//EN" "http://www.w3.org/Graphics/SVG/1.1/DTD/svg11.dtd">
<svg version="1.1" id="Capa_1" xmlns="http://www.w3.org/2000/svg" xmlns:xlink="http://www.w3.org/1999/xlink" x="0px" y="0px"
	 width="516.93px" height="516.93px" viewBox="0 0 516.93 516.93" style="enable-background:new 0 0 516.93 516.93;"
	 xml:space="preserve">
<g>
	<g>
		<path d="M97.463,213.942h33.948c2.084,0,3.771-1.688,3.771-3.771V174.65c0-11.439-9.307-20.746-20.746-20.746
			c-11.438,0-20.745,9.307-20.745,20.746v35.521C93.691,212.254,95.38,213.942,97.463,213.942z M101.234,174.651
			c0-7.28,5.922-13.203,13.202-13.203c7.282,0,13.203,5.922,13.203,13.203V206.4h-26.405V174.651z"/>
		<path d="M87.876,252.958c-11.438,0-20.745,9.307-20.745,20.746v35.521c0,2.085,1.689,3.771,3.771,3.771h33.948
			c2.084,0,3.771-1.688,3.771-3.771v-35.521C108.622,262.264,99.315,252.958,87.876,252.958z M101.079,305.453H74.674v-31.749
			c0-7.28,5.922-13.202,13.202-13.202c7.282,0,13.203,5.921,13.203,13.202V305.453z"/>
		<path d="M140.996,252.958c-11.439,0-20.746,9.307-20.746,20.746v35.521c0,2.085,1.688,3.771,3.771,3.771h33.948
			c2.083,0,3.771-1.688,3.771-3.771v-35.521C161.741,262.264,152.435,252.958,140.996,252.958z M154.199,305.453h-26.405v-31.749
			c0-7.28,5.922-13.202,13.203-13.202c7.281,0,13.203,5.921,13.203,13.202L154.199,305.453L154.199,305.453z"/>
		<path d="M507.487,284.015c-1.337-6.875-6.683-12.325-13.5-13.819v-15.503c0-2.083-1.686-3.771-3.771-3.771
			c-2.082,0-3.771,1.688-3.771,3.771v15.503c-6.873,1.51-12.244,7.039-13.525,13.994c-5.088,1.607-8.787,6.373-8.787,11.987
			c0,6.289,4.647,11.5,10.686,12.415v8.118h-14.464c-2.085,0-3.771,1.688-3.771,3.771v15.924h-5.655v-15.924
			c0-2.084-1.688-3.771-3.771-3.771h-21.793c-2.084,0-3.771,1.688-3.771,3.771v15.924h-5.655v-15.924
			c0-2.084-1.688-3.771-3.771-3.771h-19.173v-8.026c6.343-0.633,11.313-6,11.313-12.507c0-5.851-4.025-10.769-9.445-12.161
			c-1.337-6.875-6.681-12.326-13.498-13.82v-15.503c0-2.083-1.688-3.771-3.771-3.771c-2.083,0-3.771,1.688-3.771,3.771v15.503
			c-6.873,1.51-12.245,7.039-13.522,13.994c-5.09,1.607-8.79,6.373-8.79,11.987c0,6.289,4.647,11.5,10.686,12.415v8.118h-6.811
			c-2.086,0-3.771,1.688-3.771,3.771v15.924h-5.656v-15.924c0-2.084-1.688-3.771-3.771-3.771h-21.793
			c-2.083,0-3.771,1.688-3.771,3.771v15.924h-5.659v-15.924c0-2.084-1.688-3.771-3.772-3.771h-21.79
			c-2.086,0-3.771,1.688-3.771,3.771v15.924h-5.656v-15.924c0-2.084-1.688-3.771-3.771-3.771h-21.79
			c-2.084,0-3.771,1.688-3.771,3.771v15.924h-5.657v-15.924c0-2.084-1.688-3.771-3.771-3.771h-21.791
			c-2.083,0-3.771,1.688-3.771,3.771v15.924h-9.217v-92.761h9.388c1.529,0,2.909-0.924,3.49-2.341l6.534-15.924
			c0.478-1.163,0.344-2.487-0.356-3.533c-0.702-1.043-1.876-1.67-3.132-1.67h-15.926v-21.837c1.395,0.407,2.85,0.619,4.337,0.619
			c8.491,0,15.4-6.909,15.4-15.399v-48.359c6.344-0.632,11.314-6,11.314-12.509c0-5.851-4.023-10.767-9.444-12.162
			c-1.337-6.873-6.682-12.325-13.499-13.819V81.206c0-2.083-1.688-3.771-3.771-3.771s-3.771,1.688-3.771,3.771v15.503
			c-6.874,1.507-12.245,7.04-13.525,13.996c-5.089,1.609-8.789,6.374-8.789,11.988c0,0.687,0.07,1.356,0.177,2.013
			c-2.893-5.856-7.23-10.812-12.695-10.812c-10.429,0-16.764,18.045-16.764,25.981v0.418h-18.438v-0.418
			c0-7.936-6.333-25.981-16.764-25.981c-10.429,0-16.762,18.045-16.762,25.981v0.418H81.003v-0.418
			c0-7.936-6.333-25.981-16.762-25.981c-4.733,0-8.62,3.722-11.458,8.524c-0.125-5.728-4.094-10.513-9.43-11.886
			c-1.336-6.873-6.682-12.325-13.499-13.819V81.208c0-2.083-1.688-3.771-3.771-3.771s-3.771,1.688-3.771,3.771v15.504
			c-6.874,1.507-12.245,7.039-13.524,13.995C3.699,112.316,0,117.082,0,122.695c0,6.29,4.647,11.501,10.685,12.415v48.453
			c0,8.492,6.908,15.4,15.399,15.4c1.409,0,2.793-0.192,4.125-0.564v21.781h-19.7c-1.257,0-2.431,0.626-3.131,1.67
			c-0.702,1.045-0.834,2.371-0.357,3.533l6.534,15.924c0.582,1.415,1.959,2.34,3.489,2.34h13.167v192.077
			c0,2.085,1.689,3.771,3.771,3.771h59.084c2.085,0,3.771-1.688,3.771-3.771V394.24c0-10.398,8.46-18.857,18.858-18.857
			c10.396,0,18.857,8.459,18.857,18.857v41.484c0,2.085,1.689,3.771,3.771,3.771h343.823c2.084,0,3.771-1.688,3.771-3.771v-63.886
			c1.382,0.402,2.826,0.61,4.299,0.61c8.492,0,15.4-6.908,15.4-15.4v-48.364c6.343-0.633,11.313-6,11.313-12.507
			C516.932,290.327,512.908,285.409,507.487,284.015z M490.218,277.319c4.212,0,7.821,2.606,9.317,6.287h-18.634
			C482.395,279.926,486.006,277.319,490.218,277.319z M377.595,277.319c4.211,0,7.821,2.606,9.317,6.287h-18.634
			C369.773,279.926,373.386,277.319,377.595,277.319z M359.054,296.177c0-2.772,2.256-5.028,5.028-5.028h27.657
			c2.771,0,5.027,2.256,5.027,5.028s-2.256,5.028-5.027,5.028h-27.657C361.308,301.206,359.054,298.95,359.054,296.177z
			 M377.177,316.71h-7.437v-7.963h15.714v27.657h-4.506v-15.924C380.949,318.399,379.259,316.71,377.177,316.71z M206.776,103.834
			c4.211,0,7.82,2.605,9.316,6.285h-18.633C198.955,106.439,202.564,103.834,206.776,103.834z M193.261,117.663h27.657
			c2.771,0,5.028,2.256,5.028,5.029s-2.257,5.029-5.028,5.029h-27.657c-2.772,0-5.029-2.256-5.029-5.029
			S190.489,117.663,193.261,117.663z M191.375,135.104v5.186h-6.442v-0.419c0-2.565-0.666-6.188-1.915-9.917
			C184.954,132.673,187.936,134.583,191.375,135.104z M26.086,103.834c4.212,0,7.821,2.605,9.317,6.285H16.77
			C18.265,106.439,21.875,103.834,26.086,103.834z M12.571,127.719c-2.772,0-5.028-2.256-5.028-5.029
			c0-2.771,2.255-5.029,5.028-5.029h27.657c2.772,0,5.029,2.256,5.029,5.029s-2.257,5.029-5.029,5.029H12.571z M48.806,131.856
			c-0.868,3.036-1.326,5.889-1.326,8.015v0.419h-5.994v-5.092C44.306,134.917,46.845,133.692,48.806,131.856z M26.086,191.416
			c-4.333,0-7.856-3.524-7.856-7.857v-48.296h15.715v8.8c0,2.083,1.688,3.771,3.771,3.771h13.536c2.084,0,3.771-1.688,3.771-3.771
			v-4.19c0-7.065,5.688-18.438,9.221-18.438c3.533,0,9.22,11.373,9.22,18.438v4.19c0,2.083,1.688,3.771,3.771,3.771h25.982
			c2.083,0,3.771-1.688,3.771-3.771v-4.19c0-7.065,5.687-18.438,9.219-18.438c3.533,0,9.221,11.373,9.221,18.438v4.19
			c0,2.083,1.688,3.771,3.771,3.771h25.98c2.084,0,3.771-1.688,3.771-3.771v-4.19c0-7.065,5.688-18.438,9.221-18.438
			c3.532,0,9.22,11.373,9.22,18.438v4.19c0,2.083,1.689,3.771,3.771,3.771h13.985c2.083,0,3.771-1.688,3.771-3.771v-8.8h15.714
			v48.296c0,4.333-3.523,7.857-7.857,7.857c-2.053,0-3.999-0.792-5.478-2.231c-1.085-1.058-2.699-1.363-4.096-0.772
			c-1.398,0.59-2.306,1.958-2.306,3.475v28.29H37.754V192.08c0-1.5-0.887-2.856-2.262-3.457c-1.374-0.601-2.973-0.33-4.074,0.691
			C29.955,190.668,28.061,191.416,26.086,191.416z M19.574,236.1l-3.439-8.38h196.602l-3.439,8.38H19.574z M498.076,357.044
			c0,4.333-3.525,7.855-7.857,7.855c-2.037,0-3.974-0.783-5.451-2.209c-1.09-1.051-2.695-1.349-4.094-0.759
			c-1.392,0.592-2.297,1.958-2.297,3.472v24.028h-19.913c-2.271,0-4.114,1.842-4.114,4.114c0,2.273,1.843,4.114,4.114,4.114h19.913
			v3.357h-19.913c-2.271,0-4.114,1.842-4.114,4.114s1.843,4.114,4.114,4.114h19.913v3.356h-19.913c-2.271,0-4.114,1.841-4.114,4.114
			c0,2.271,1.843,4.114,4.114,4.114h19.913v11.113h-336.28V394.23c0-14.557-11.843-26.399-26.4-26.399
			c-14.556,0-26.401,11.844-26.401,26.399v37.715H37.754V243.644h157.142v96.534c0,2.084,1.689,3.771,3.771,3.771h16.761
			c2.083,0,3.771-1.688,3.771-3.771v-15.924h14.248v15.924c0,2.084,1.688,3.771,3.771,3.771h13.2c2.083,0,3.771-1.688,3.771-3.771
			v-15.924h14.248v15.924c0,2.084,1.688,3.771,3.771,3.771h13.199c2.082,0,3.771-1.688,3.771-3.771v-15.924h14.247v15.924
			c0,2.084,1.688,3.771,3.771,3.771h13.2c2.084,0,3.771-1.688,3.771-3.771v-15.924h14.249v15.924c0,2.084,1.687,3.771,3.771,3.771
			h13.199c2.082,0,3.771-1.688,3.771-3.771v-15.924h14.247v15.924c0,2.084,1.688,3.771,3.771,3.771h13.198
			c2.083,0,3.771-1.688,3.771-3.771v-15.924h14.249v15.924c0,2.084,1.688,3.771,3.771,3.771h13.197c2.085,0,3.771-1.688,3.771-3.771
			v-15.924h14.25v15.924c0,2.084,1.687,3.771,3.771,3.771h13.198c2.084,0,3.771-1.688,3.771-3.771v-15.924h14.462
			c2.084,0,3.771-1.688,3.771-3.771V308.75h15.715v48.296L498.076,357.044L498.076,357.044z M504.36,301.206h-27.656
			c-2.772,0-5.028-2.256-5.028-5.028s2.256-5.028,5.028-5.028h27.656c2.772,0,5.029,2.256,5.029,5.028
			S507.134,301.206,504.36,301.206z"/>
	</g>
</g>
<g>
</g>
<g>
</g>
<g>
</g>
<g>
</g>
<g>
</g>
<g>
</g>
<g>
</g>
<g>
</g>
<g>
</g>
<g>
</g>
<g>
</g>
<g>
</g>
<g>
</g>
<g>
</g>
<g>
</g>
</svg>
