<?xml version="1.0" encoding="iso-8859-1"?>
<!-- Generator: Adobe Illustrator 19.0.0, SVG Export Plug-In . SVG Version: 6.00 Build 0)  -->
<svg version="1.1" id="Capa_1" xmlns="http://www.w3.org/2000/svg" xmlns:xlink="http://www.w3.org/1999/xlink" x="0px" y="0px"
	 viewBox="0 0 495.589 495.589" style="enable-background:new 0 0 495.589 495.589;" xml:space="preserve">
<g>
	<path style="fill:#010002;" d="M348.905,380.019H113.816c-4.381,0-7.931,3.55-7.931,7.931s3.55,7.931,7.931,7.931h235.089
		c4.381,0,7.931-3.55,7.931-7.931S353.285,380.019,348.905,380.019z"/>
	<path style="fill:#010002;" d="M139.187,256.446c16.208,34.685,51.43,58.774,92.173,58.774c40.75,0,75.974-24.095,92.178-58.789
		c0.189-0.317,0.346-0.658,0.466-1.013c5.798-12.776,9.027-26.953,9.027-41.872c0-17.495-4.444-33.978-12.26-48.368
		c-0.157-0.39-0.361-0.756-0.601-1.093c-17.403-31.126-50.688-52.213-88.81-52.213c-38.115,0-71.401,21.084-88.803,52.198
		c-0.25,0.346-0.457,0.721-0.619,1.122c-7.127,13.127-11.446,27.989-12.149,43.778c-0.005,0.087-0.009,0.177-0.011,0.264
		c-0.06,1.43-0.091,2.867-0.091,4.311c0,14.913,3.228,29.084,9.02,41.856C138.829,255.77,138.991,256.12,139.187,256.446z
		 M275.767,293.039c4.162-11.77,7.474-23.059,9.946-34.023h24.565C302.059,273.228,290.096,285.003,275.767,293.039z
		 M315.509,248.44h-27.662c2.05-11.488,3.159-22.7,3.29-33.818h31.314C322.313,226.586,319.856,238,315.509,248.44z
		 M321.965,204.047h-30.993c-0.452-10.477-1.765-20.957-3.93-31.597h25.609C317.56,182.122,320.794,192.781,321.965,204.047z
		 M306.349,161.874h-21.729c-2.292-9.045-5.185-18.262-8.685-27.739C288.055,140.965,298.471,150.475,306.349,161.874z
		 M236.648,122.599c9.023,0.519,17.698,2.357,25.835,5.324c0.048,0.485,0.14,0.971,0.331,1.446
		c4.514,11.266,8.173,22.03,10.985,32.504h-37.151V122.599z M236.648,172.45h39.715c2.318,10.689,3.691,21.145,4.176,31.597h-43.891
		V172.45z M236.648,214.623h44.06c-0.14,11.084-1.326,22.277-3.516,33.818h-40.543V214.623z M236.648,259.016h38.277
		c-2.945,12.356-6.947,25.178-12.145,38.847c-0.158,0.415-0.242,0.837-0.293,1.259c-8.143,2.972-16.808,4.852-25.839,5.371V259.016z
		 M152.441,259.016h24.564c2.472,10.964,5.783,22.253,9.944,34.022C172.621,285.001,160.66,273.227,152.441,259.016z
		 M226.072,304.493c-9.033-0.52-17.698-2.4-25.842-5.372c-0.05-0.421-0.135-0.843-0.292-1.258
		c-5.198-13.669-9.2-26.491-12.145-38.847h38.28V304.493z M226.072,248.44h-40.545c-2.19-11.541-3.377-22.734-3.516-33.818h44.062
		V248.44z M226.072,204.047H182.18c0.485-10.453,1.858-20.909,4.176-31.597h39.717V204.047z M226.072,161.874h-37.154
		c2.812-10.475,6.471-21.238,10.985-32.504c0.191-0.475,0.282-0.96,0.331-1.445c8.138-2.968,16.815-4.806,25.839-5.325V161.874z
		 M186.78,134.137c-3.5,9.476-6.392,18.693-8.684,27.737h-21.727C164.247,150.476,174.662,140.967,186.78,134.137z M150.069,172.45
		h25.608c-2.166,10.64-3.478,21.12-3.93,31.597h-30.993C141.925,192.781,145.158,182.122,150.069,172.45z M171.581,214.623
		c0.131,11.118,1.239,22.33,3.289,33.818h-27.661c-4.346-10.441-6.803-21.854-6.942-33.818H171.581z"/>
	<path style="fill:#010002;" d="M407.502,0c-0.135,0-0.268,0.005-0.403,0.016C378.464,2.2,344.961,4.401,309.493,6.73
		c-74.139,4.87-157.954,10.383-220.926,17.374c-19.75,1.13-35.483,17.507-35.483,37.535v396.305
		c0,20.758,16.887,37.645,37.645,37.645H371.99c17.898,0,32.891-12.569,36.688-29.336c18.754-0.628,33.827-16.04,33.827-34.944
		V35.004C442.506,15.703,426.803,0,407.502,0z M393.772,457.945c0,12.011-9.77,21.783-21.781,21.783H90.728
		c-12.011,0-21.783-9.772-21.783-21.783V61.639c0-12.011,9.772-21.783,21.783-21.783H371.99c12.011,0,21.781,9.772,21.781,21.783
		V457.945z M431.93,431.309c0,12.751-9.823,23.235-22.297,24.32V61.639c0-20.758-16.887-37.645-37.643-37.645H211.511
		c33.058-2.399,66.766-4.616,98.676-6.712c35.41-2.326,68.86-4.525,97.506-6.707c13.382,0.104,24.237,11.022,24.237,24.428V431.309z
		"/>
</g>
<g>
</g>
<g>
</g>
<g>
</g>
<g>
</g>
<g>
</g>
<g>
</g>
<g>
</g>
<g>
</g>
<g>
</g>
<g>
</g>
<g>
</g>
<g>
</g>
<g>
</g>
<g>
</g>
<g>
</g>
</svg>
